<svg xmlns="http://www.w3.org/2000/svg" width="32" height="32">
    <path
        d="M16.008 0C7.168 0 0 7.168 0 16.008s7.168 16.008 16.008 16.008 16.008-7.168 16.008-16.008S24.848 0 16.008 0zm8.453 23.355l-1.281 1.282c-.23.23-.899.37-.922.37a15.124 15.124 0 01-10.828-4.425A15.137 15.137 0 017.004 9.719s.144-.653.375-.88L8.66 7.56c.469-.473 1.371-.684 2-.473l.27.09c.629.21 1.289.906 1.465 1.547l.644 2.367c.172.64-.062 1.555-.531 2.027l-.856.856a9.083 9.083 0 006.395 6.39l.855-.855c.47-.469 1.383-.703 2.024-.531l2.367.648c.64.176 1.336.832 1.547 1.46l.09.274c.21.63 0 1.532-.47 1.996zm0 0" />
</svg>